<mxfile host="app.diagrams.net" agent="Mozilla/5.0 (Windows NT 10.0; Win64; x64) AppleWebKit/537.36 (KHTML, like Gecko) Chrome/131.0.0.0 Safari/537.36" version="24.8.4">
  <diagram id="Z_2VgMhM42UTWrS6uwFz" name="Сторінка-1">
    <mxGraphModel dx="4200" dy="1891" grid="1" gridSize="10" guides="1" tooltips="1" connect="1" arrows="1" fold="1" page="0" pageScale="1" pageWidth="827" pageHeight="1169" background="none" math="0" shadow="0">
      <root>
        <mxCell id="0" />
        <mxCell id="1" parent="0" />
        <mxCell id="DeM_ozMbzpMKVBjR-W4c-128" value="package" style="shape=folder;fontStyle=1;spacingTop=10;tabWidth=40;tabHeight=14;tabPosition=left;html=1;whiteSpace=wrap;fillColor=#dae8fc;strokeColor=#6c8ebf;" vertex="1" parent="1">
          <mxGeometry x="-600" y="-320" width="1840" height="1630" as="geometry" />
        </mxCell>
        <mxCell id="node8" value="&lt;p style=&quot;margin:0px;margin-top:4px;text-align:center;&quot;&gt;&lt;b&gt;AccountancyEntryWrapper&lt;/b&gt;&lt;/p&gt;&lt;hr size=&quot;1&quot;&gt;&lt;p style=&quot;margin:0 0 0 4px;line-height:1.6;&quot;&gt;+ AccountancyEntryWrapper(Order): &lt;br&gt;# AccountancyEntryWrapper(): &lt;/p&gt;&lt;hr size=&quot;1&quot;&gt;&lt;p style=&quot;margin:0 0 0 4px;line-height:1.6;&quot;&gt;+ categoryToString(Category): String&lt;/p&gt;&lt;hr size=&quot;1&quot;&gt;&lt;p style=&quot;margin:0 0 0 4px;line-height:1.6;&quot;&gt;&lt;br&gt; items: Map&amp;lt;String, Quantity&amp;gt;&lt;br&gt; timestamp: LocalDateTime&lt;/p&gt;" style="verticalAlign=top;align=left;overflow=fill;fontSize=14;fontFamily=Helvetica;html=1;rounded=0;shadow=0;comic=0;labelBackgroundColor=none;strokeWidth=1;fillColor=#ffe6cc;strokeColor=#d79b00;" parent="1" vertex="1">
          <mxGeometry x="-195" y="560" width="265" height="207" as="geometry" />
        </mxCell>
        <mxCell id="node1" value="&lt;p style=&quot;margin:0px;margin-top:4px;text-align:center;&quot;&gt;&lt;b&gt;CashRegister&lt;/b&gt;&lt;/p&gt;&lt;hr size=&quot;1&quot;/&gt;&lt;p style=&quot;margin:0 0 0 4px;line-height:1.6;&quot;&gt;+ CashRegister(Set&amp;lt;AccountancyEntry&amp;gt;, Money): &lt;br/&gt;# CashRegister(): &lt;/p&gt;&lt;hr size=&quot;1&quot;/&gt;&lt;p style=&quot;margin:0 0 0 4px;line-height:1.6;&quot;&gt; accountancyEntries: Set&amp;lt;AccountancyEntry&amp;gt;&lt;br/&gt; id: Long&lt;br/&gt; balance: Money&lt;/p&gt;" style="verticalAlign=top;align=left;overflow=fill;fontSize=14;fontFamily=Helvetica;html=1;rounded=0;shadow=0;comic=0;labelBackgroundColor=none;strokeWidth=1;fillColor=#ffe6cc;strokeColor=#d79b00;" parent="1" vertex="1">
          <mxGeometry x="840" y="850" width="349" height="160" as="geometry" />
        </mxCell>
        <mxCell id="node4" value="&lt;p style=&quot;margin:0px;margin-top:4px;text-align:center;&quot;&gt;&lt;b&gt;CashRegisterInitializer&lt;/b&gt;&lt;/p&gt;&lt;hr size=&quot;1&quot;/&gt;&lt;p style=&quot;margin:0 0 0 4px;line-height:1.6;&quot;&gt;+ CashRegisterInitializer(CashRegisterRepository): &lt;/p&gt;&lt;hr size=&quot;1&quot;/&gt;&lt;p style=&quot;margin:0 0 0 4px;line-height:1.6;&quot;&gt;+ initialize(): void&lt;/p&gt;" style="verticalAlign=top;align=left;overflow=fill;fontSize=14;fontFamily=Helvetica;html=1;rounded=0;shadow=0;comic=0;labelBackgroundColor=none;strokeWidth=1;fillColor=#ffe6cc;strokeColor=#d79b00;" parent="1" vertex="1">
          <mxGeometry x="710" y="1187.5" width="350" height="95" as="geometry" />
        </mxCell>
        <mxCell id="node9" value="&lt;p style=&quot;margin:0px;margin-top:4px;text-align:center;&quot;&gt;&lt;i&gt;&amp;lt;&amp;lt;interface&amp;gt;&amp;gt;&lt;/i&gt;&lt;br/&gt;&lt;b&gt;CashRegisterRepository&lt;/b&gt;&lt;/p&gt;&lt;hr size=&quot;1&quot;/&gt;&lt;p style=&quot;margin:0 0 0 4px;line-height:1.6;&quot;&gt;+ findFirstByOrderById(): Optional&amp;lt;CashRegister&amp;gt;&lt;/p&gt;" style="verticalAlign=top;align=left;overflow=fill;fontSize=14;fontFamily=Helvetica;html=1;rounded=0;shadow=0;comic=0;labelBackgroundColor=none;strokeWidth=1;fillColor=#d5e8d4;strokeColor=#82b366;" parent="1" vertex="1">
          <mxGeometry x="300" y="1080" width="347" height="79" as="geometry" />
        </mxCell>
        <mxCell id="node7" value="&lt;p style=&quot;margin:0px;margin-top:4px;text-align:center;&quot;&gt;&lt;b&gt;CashRegisterService&lt;/b&gt;&lt;/p&gt;&lt;hr size=&quot;1&quot;&gt;&lt;p style=&quot;margin:0 0 0 4px;line-height:1.6;&quot;&gt;+ CashRegisterService(OrderManagement&amp;lt;AbstractOrder&amp;gt;, CashRegisterRepository): &lt;/p&gt;&lt;hr size=&quot;1&quot;&gt;&lt;p style=&quot;margin:0 0 0 4px;line-height:1.6;&quot;&gt;+ getProfit(Streamable&amp;lt;AccountancyEntry&amp;gt;): MonetaryAmount&lt;br&gt;+ getRevenue(Streamable&amp;lt;AccountancyEntry&amp;gt;): MonetaryAmount&lt;br&gt;+ getExpences(Streamable&amp;lt;AccountancyEntry&amp;gt;): MonetaryAmount&lt;br&gt;+ find(Interval, TemporalAmount, Class&amp;lt;T&amp;gt;): Map&amp;lt;Interval, Streamable&amp;lt;T&amp;gt;&amp;gt;&lt;br&gt;+ filterEntries(Category): Streamable&amp;lt;AccountancyEntry&amp;gt;&lt;br&gt;+ find(Interval, TemporalAmount): Map&amp;lt;Interval, Streamable&amp;lt;AccountancyEntry&amp;gt;&amp;gt;&lt;br&gt;+ add(T): T&lt;br&gt;+ onOrderPaid(OrderPaid): void&lt;br&gt;+ get(AccountancyEntryIdentifier, Class&amp;lt;T&amp;gt;): Optional&amp;lt;T&amp;gt;&lt;br&gt;+ find(Interval, Class&amp;lt;T&amp;gt;): Streamable&amp;lt;T&amp;gt;&lt;br&gt;+ createFinancialReportDay(LocalDateTime): DailyFinancialReport&lt;br&gt;+ createFinancialReportMonth(LocalDateTime): MonthlyFinancialReport&lt;br&gt;+ find(Interval): Streamable&amp;lt;AccountancyEntry&amp;gt;&lt;br&gt;+ salesVolume(Interval, TemporalAmount): Map&amp;lt;Interval, MonetaryAmount&amp;gt;&lt;br&gt;+ getCashRegisterById(Long): CashRegister&lt;br&gt;+ findAll(Class&amp;lt;T&amp;gt;): Streamable&amp;lt;T&amp;gt;&lt;br&gt;+ findAll(): Streamable&amp;lt;AccountancyEntry&amp;gt;&lt;br&gt;+ get(AccountancyEntryIdentifier): Optional&amp;lt;AccountancyEntry&amp;gt;&lt;br&gt;+ filterIncomeOrSpending(boolean): LinkedList&amp;lt;AccountancyEntry&amp;gt;&lt;/p&gt;&lt;p style=&quot;margin:0 0 0 4px;line-height:1.6;&quot;&gt;&lt;br&gt;&lt;/p&gt;" style="verticalAlign=top;align=left;overflow=fill;fontSize=14;fontFamily=Helvetica;html=1;rounded=0;shadow=0;comic=0;labelBackgroundColor=none;strokeWidth=1;fillColor=#ffe6cc;strokeColor=#d79b00;" parent="1" vertex="1">
          <mxGeometry x="180" y="400" width="550" height="510" as="geometry" />
        </mxCell>
        <mxCell id="node3" value="&lt;p style=&quot;margin:0px;margin-top:4px;text-align:center;&quot;&gt;&lt;i&gt;&amp;lt;&amp;lt;enumeration&amp;gt;&amp;gt;&lt;/i&gt;&lt;br/&gt;&lt;b&gt;Category&lt;/b&gt;&lt;/p&gt;&lt;hr size=&quot;1&quot;/&gt;&lt;p style=&quot;margin:0 0 0 4px;line-height:1.6;&quot;&gt;+ Category(): &lt;/p&gt;&lt;hr size=&quot;1&quot;/&gt;&lt;p style=&quot;margin:0 0 0 4px;line-height:1.6;&quot;&gt;+ values(): Category[]&lt;br/&gt;+ valueOf(String): Category&lt;/p&gt;" style="verticalAlign=top;align=left;overflow=fill;fontSize=14;fontFamily=Helvetica;html=1;rounded=0;shadow=0;comic=0;labelBackgroundColor=none;strokeWidth=1;fillColor=#d5e8d4;strokeColor=#82b366;" parent="1" vertex="1">
          <mxGeometry x="-97" y="331" width="204" height="140" as="geometry" />
        </mxCell>
        <mxCell id="node6" value="&lt;p style=&quot;margin:0px;margin-top:4px;text-align:center;&quot;&gt;&lt;b&gt;DailyFinancialReport&lt;/b&gt;&lt;/p&gt;&lt;hr size=&quot;1&quot;&gt;&lt;p style=&quot;margin:0 0 0 4px;line-height:1.6;&quot;&gt;+ DailyFinancialReport(Interval, MonetaryAmount, CashRegisterService): &lt;/p&gt;&lt;p style=&quot;margin:0 0 0 4px;line-height:1.6;&quot;&gt;&lt;br&gt;&lt;/p&gt;" style="verticalAlign=top;align=left;overflow=fill;fontSize=14;fontFamily=Helvetica;html=1;rounded=0;shadow=0;comic=0;labelBackgroundColor=none;strokeWidth=1;fillColor=#ffe6cc;strokeColor=#d79b00;" parent="1" vertex="1">
          <mxGeometry x="-410" y="99" width="470" height="81" as="geometry" />
        </mxCell>
        <mxCell id="node2" value="&lt;p style=&quot;margin:0px;margin-top:4px;text-align:center;&quot;&gt;&lt;b&gt;FinancesController&lt;/b&gt;&lt;/p&gt;&lt;hr size=&quot;1&quot;/&gt;&lt;p style=&quot;margin:0 0 0 4px;line-height:1.6;&quot;&gt;+ FinancesController(CashRegisterService): &lt;/p&gt;&lt;hr size=&quot;1&quot;/&gt;&lt;p style=&quot;margin:0 0 0 4px;line-height:1.6;&quot;&gt;+ getTransactionPage(Model): String&lt;br/&gt;+ resetCategory(Model): String&lt;br/&gt;- prepareFinancesModel(Model, List&amp;lt;AccountancyEntryWrapper&amp;gt;): void&lt;br/&gt;+ resetDates(Model): String&lt;br/&gt;+ filterDates(LocalDate, LocalDate, Model): String&lt;br/&gt;- setFilteredOrdersList(List&amp;lt;AccountancyEntryWrapper&amp;gt;, int): void&lt;br/&gt;- intersection(Set&amp;lt;AccountancyEntryWrapper&amp;gt;, Set&amp;lt;AccountancyEntryWrapper&amp;gt;): Set&amp;lt;AccountancyEntryWrapper&amp;gt;&lt;br/&gt;- limitListSize(int): void&lt;br/&gt;+ filterCategories(String, Model): String&lt;/p&gt;" style="verticalAlign=top;align=left;overflow=fill;fontSize=14;fontFamily=Helvetica;html=1;rounded=0;shadow=0;comic=0;labelBackgroundColor=none;strokeWidth=1;fillColor=#ffe6cc;strokeColor=#d79b00;" parent="1" vertex="1">
          <mxGeometry x="-570" y="852.5" width="740" height="280" as="geometry" />
        </mxCell>
        <mxCell id="node5" value="&lt;p style=&quot;margin:0px;margin-top:4px;text-align:center;&quot;&gt;&lt;b&gt;&lt;i&gt;FinancialReport&lt;/i&gt;&lt;/b&gt;&lt;/p&gt;&lt;hr size=&quot;1&quot;&gt;&lt;p style=&quot;margin:0 0 0 4px;line-height:1.6;&quot;&gt;+ FinancialReport(Interval, MonetaryAmount, CashRegisterService): &lt;/p&gt;&lt;hr size=&quot;1&quot;&gt;&lt;p style=&quot;margin:0 0 0 4px;line-height:1.6;&quot;&gt;+ generatePDF(): void&lt;br&gt;# countProfit(): void&lt;/p&gt;&lt;hr size=&quot;1&quot;&gt;&lt;p style=&quot;margin:0 0 0 4px;line-height:1.6;&quot;&gt; income: MonetaryAmount&lt;br&gt; profit: MonetaryAmount&lt;br&gt; expenditure: MonetaryAmount&lt;br&gt; balance: MonetaryAmount&lt;/p&gt;" style="verticalAlign=top;align=left;overflow=fill;fontSize=14;fontFamily=Helvetica;html=1;rounded=0;shadow=0;comic=0;labelBackgroundColor=none;strokeWidth=1;fillColor=#ffe6cc;strokeColor=#d79b00;" parent="1" vertex="1">
          <mxGeometry x="-150" y="-270" width="441" height="239" as="geometry" />
        </mxCell>
        <mxCell id="node10" value="&lt;p style=&quot;margin:0px;margin-top:4px;text-align:center;&quot;&gt;&lt;b&gt;IntervalComparator&lt;/b&gt;&lt;/p&gt;&lt;hr size=&quot;1&quot;/&gt;&lt;p style=&quot;margin:0 0 0 4px;line-height:1.6;&quot;&gt;+ IntervalComparator(): &lt;/p&gt;&lt;hr size=&quot;1&quot;/&gt;&lt;p style=&quot;margin:0 0 0 4px;line-height:1.6;&quot;&gt;+ compare(Interval, Interval): int&lt;/p&gt;" style="verticalAlign=top;align=left;overflow=fill;fontSize=14;fontFamily=Helvetica;html=1;rounded=0;shadow=0;comic=0;labelBackgroundColor=none;strokeWidth=1;fillColor=#ffe6cc;strokeColor=#d79b00;" parent="1" vertex="1">
          <mxGeometry x="470" y="-90" width="233" height="95" as="geometry" />
        </mxCell>
        <mxCell id="node0" value="&lt;p style=&quot;margin:0px;margin-top:4px;text-align:center;&quot;&gt;&lt;b&gt;MonthlyFinancialReport&lt;/b&gt;&lt;/p&gt;&lt;hr size=&quot;1&quot;/&gt;&lt;p style=&quot;margin:0 0 0 4px;line-height:1.6;&quot;&gt;+ MonthlyFinancialReport(Interval, MonetaryAmount, CashRegisterService): &lt;/p&gt;" style="verticalAlign=top;align=left;overflow=fill;fontSize=14;fontFamily=Helvetica;html=1;rounded=0;shadow=0;comic=0;labelBackgroundColor=none;strokeWidth=1;fillColor=#ffe6cc;strokeColor=#d79b00;" parent="1" vertex="1">
          <mxGeometry x="80" y="99" width="480" height="68" as="geometry" />
        </mxCell>
        <mxCell id="edge8" value="" style="html=1;rounded=1;edgeStyle=orthogonalEdgeStyle;dashed=1;startArrow=none;endArrow=openThin;endSize=12;strokeColor=#595959;exitX=0.750;exitY=0.000;exitDx=0;exitDy=0;entryX=0.500;entryY=1.000;entryDx=0;entryDy=0;" parent="1" source="node4" target="node1" edge="1">
          <mxGeometry width="50" height="50" relative="1" as="geometry">
            <Array as="points">
              <mxPoint x="1035" y="1109" />
              <mxPoint x="1042" y="1109" />
            </Array>
          </mxGeometry>
        </mxCell>
        <mxCell id="label50" value="«create»" style="edgeLabel;resizable=0;html=1;align=left;verticalAlign=top;strokeColor=default;" parent="edge8" vertex="1" connectable="0">
          <mxGeometry x="985" y="1099" as="geometry" />
        </mxCell>
        <mxCell id="edge13" value="" style="html=1;rounded=1;edgeStyle=orthogonalEdgeStyle;dashed=1;startArrow=none;endArrow=openThin;endSize=12;strokeColor=#595959;exitX=0.002;exitY=0.518;exitDx=0;exitDy=0;entryX=1;entryY=0.5;entryDx=0;entryDy=0;exitPerimeter=0;" parent="1" source="node7" target="node8" edge="1">
          <mxGeometry width="50" height="50" relative="1" as="geometry">
            <Array as="points">
              <mxPoint x="178" y="664" />
              <mxPoint x="120" y="664" />
            </Array>
          </mxGeometry>
        </mxCell>
        <mxCell id="edge3" value="" style="html=1;rounded=1;edgeStyle=orthogonalEdgeStyle;dashed=1;startArrow=none;endArrow=openThin;endSize=12;strokeColor=#595959;exitX=0.250;exitY=0.000;exitDx=0;exitDy=0;entryX=0.250;entryY=1.001;entryDx=0;entryDy=0;" parent="1" source="node7" target="node6" edge="1">
          <mxGeometry width="50" height="50" relative="1" as="geometry">
            <Array as="points">
              <mxPoint x="317" y="290" />
              <mxPoint x="-301" y="290" />
            </Array>
          </mxGeometry>
        </mxCell>
        <mxCell id="label20" value="«create»" style="edgeLabel;resizable=0;html=1;align=left;verticalAlign=top;strokeColor=default;" parent="edge3" vertex="1" connectable="0">
          <mxGeometry x="107" y="654" as="geometry" />
        </mxCell>
        <mxCell id="edge7" value="" style="html=1;rounded=1;edgeStyle=orthogonalEdgeStyle;dashed=1;startArrow=none;endArrow=openThin;endSize=12;strokeColor=#595959;exitX=0.250;exitY=0.000;exitDx=0;exitDy=0;entryX=0.75;entryY=1;entryDx=0;entryDy=0;" parent="1" source="node7" target="node0" edge="1">
          <mxGeometry width="50" height="50" relative="1" as="geometry">
            <Array as="points">
              <mxPoint x="317" y="340" />
              <mxPoint x="410" y="340" />
              <mxPoint x="410" y="320" />
              <mxPoint x="411" y="320" />
            </Array>
          </mxGeometry>
        </mxCell>
        <mxCell id="label44" value="«create»" style="edgeLabel;resizable=0;html=1;align=left;verticalAlign=top;strokeColor=default;" parent="edge7" vertex="1" connectable="0">
          <mxGeometry x="390" y="270" as="geometry" />
        </mxCell>
        <mxCell id="edge1" value="" style="html=1;rounded=1;edgeStyle=orthogonalEdgeStyle;dashed=0;startArrow=none;endArrow=block;endSize=12;strokeColor=#000082;exitX=0.500;exitY=0.000;exitDx=0;exitDy=0;entryX=0.500;entryY=1.000;entryDx=0;entryDy=0;" parent="1" source="node6" target="node5" edge="1">
          <mxGeometry width="50" height="50" relative="1" as="geometry">
            <Array as="points">
              <mxPoint x="-192" y="60" />
              <mxPoint x="71" y="60" />
            </Array>
          </mxGeometry>
        </mxCell>
        <mxCell id="edge2" value="" style="html=1;rounded=1;edgeStyle=orthogonalEdgeStyle;dashed=0;startArrow=circlePlus;startFill=0;endArrow=none;strokeColor=#820000;exitX=0.750;exitY=1.000;exitDx=0;exitDy=0;entryX=0.625;entryY=0.001;entryDx=0;entryDy=0;" parent="1" source="node10" target="node0" edge="1">
          <mxGeometry width="50" height="50" relative="1" as="geometry">
            <Array as="points" />
          </mxGeometry>
        </mxCell>
        <mxCell id="edge0" value="" style="html=1;rounded=1;edgeStyle=orthogonalEdgeStyle;dashed=0;startArrow=none;endArrow=block;endSize=12;strokeColor=#000082;exitX=0.5;exitY=0;exitDx=0;exitDy=0;entryX=0.500;entryY=1.000;entryDx=0;entryDy=0;" parent="1" source="node0" target="node5" edge="1">
          <mxGeometry width="50" height="50" relative="1" as="geometry">
            <Array as="points">
              <mxPoint x="300" y="60" />
              <mxPoint x="71" y="60" />
            </Array>
          </mxGeometry>
        </mxCell>
        <mxCell id="edge5" value="" style="html=1;rounded=1;edgeStyle=orthogonalEdgeStyle;dashed=1;startArrow=none;endArrow=openThin;endSize=12;strokeColor=#595959;exitX=0.375;exitY=0.001;exitDx=0;exitDy=0;entryX=-0.009;entryY=0.602;entryDx=0;entryDy=0;entryPerimeter=0;" parent="1" source="node0" target="node10" edge="1">
          <mxGeometry width="50" height="50" relative="1" as="geometry">
            <Array as="points">
              <mxPoint x="245" y="30" />
              <mxPoint x="420" y="30" />
              <mxPoint x="420" y="-33" />
            </Array>
          </mxGeometry>
        </mxCell>
        <mxCell id="label32" value="«create»" style="edgeLabel;resizable=0;html=1;align=left;verticalAlign=top;strokeColor=default;" parent="edge5" vertex="1" connectable="0">
          <mxGeometry x="190" y="280" as="geometry" />
        </mxCell>
        <mxCell id="DeM_ozMbzpMKVBjR-W4c-1" value="" style="endArrow=diamondThin;endFill=0;endSize=24;html=1;rounded=0;entryX=0.223;entryY=0.985;entryDx=0;entryDy=0;entryPerimeter=0;exitX=0.466;exitY=1.025;exitDx=0;exitDy=0;exitPerimeter=0;" edge="1" parent="1" source="node6">
          <mxGeometry width="160" relative="1" as="geometry">
            <mxPoint x="-190" y="208.99999999999977" as="sourcePoint" />
            <mxPoint x="180.34299999999985" y="165.98000000000002" as="targetPoint" />
            <Array as="points">
              <mxPoint x="-190" y="250" />
              <mxPoint x="182" y="250" />
            </Array>
          </mxGeometry>
        </mxCell>
        <mxCell id="DeM_ozMbzpMKVBjR-W4c-2" value="1" style="text;html=1;align=center;verticalAlign=middle;resizable=0;points=[];autosize=1;strokeColor=none;fillColor=none;" vertex="1" parent="1">
          <mxGeometry x="150" y="167" width="30" height="30" as="geometry" />
        </mxCell>
        <mxCell id="DeM_ozMbzpMKVBjR-W4c-3" value="0..31" style="text;html=1;align=center;verticalAlign=middle;whiteSpace=wrap;rounded=0;" vertex="1" parent="1">
          <mxGeometry x="-250" y="180" width="60" height="30" as="geometry" />
        </mxCell>
        <mxCell id="DeM_ozMbzpMKVBjR-W4c-4" value="dailyFinancialReports&lt;div&gt;&lt;br&gt;&lt;/div&gt;" style="text;html=1;align=center;verticalAlign=middle;whiteSpace=wrap;rounded=0;" vertex="1" parent="1">
          <mxGeometry x="200" y="150" width="112" height="90" as="geometry" />
        </mxCell>
        <mxCell id="DeM_ozMbzpMKVBjR-W4c-6" value="" style="endArrow=diamondThin;endFill=1;endSize=24;html=1;rounded=0;exitX=0.25;exitY=1;exitDx=0;exitDy=0;entryX=0.5;entryY=0;entryDx=0;entryDy=0;" edge="1" parent="1" source="node3" target="node8">
          <mxGeometry width="160" relative="1" as="geometry">
            <mxPoint x="50" y="590" as="sourcePoint" />
            <mxPoint x="210" y="590" as="targetPoint" />
            <Array as="points" />
          </mxGeometry>
        </mxCell>
        <mxCell id="DeM_ozMbzpMKVBjR-W4c-7" value="category" style="text;html=1;align=center;verticalAlign=middle;resizable=0;points=[];autosize=1;strokeColor=none;fillColor=none;" vertex="1" parent="1">
          <mxGeometry x="-147" y="528" width="70" height="30" as="geometry" />
        </mxCell>
        <mxCell id="DeM_ozMbzpMKVBjR-W4c-8" value="1" style="text;html=1;align=center;verticalAlign=middle;resizable=0;points=[];autosize=1;strokeColor=none;fillColor=none;" vertex="1" parent="1">
          <mxGeometry x="-40" y="528" width="30" height="30" as="geometry" />
        </mxCell>
        <mxCell id="DeM_ozMbzpMKVBjR-W4c-9" value="1" style="text;html=1;align=center;verticalAlign=middle;resizable=0;points=[];autosize=1;strokeColor=none;fillColor=none;" vertex="1" parent="1">
          <mxGeometry x="-127" y="370" width="30" height="30" as="geometry" />
        </mxCell>
        <mxCell id="DeM_ozMbzpMKVBjR-W4c-10" value="" style="endArrow=diamondThin;endFill=0;endSize=24;html=1;rounded=0;entryX=0.459;entryY=-0.005;entryDx=0;entryDy=0;entryPerimeter=0;exitX=0;exitY=0.5;exitDx=0;exitDy=0;" edge="1" parent="1" source="node8" target="node2">
          <mxGeometry width="160" relative="1" as="geometry">
            <mxPoint x="-180" y="1130" as="sourcePoint" />
            <mxPoint x="-20" y="1130" as="targetPoint" />
            <Array as="points">
              <mxPoint x="-230" y="664" />
            </Array>
          </mxGeometry>
        </mxCell>
        <mxCell id="DeM_ozMbzpMKVBjR-W4c-11" value="&lt;div style=&quot;background-color: rgb(30, 31, 34);&quot;&gt;&lt;pre style=&quot;&quot;&gt;&lt;br&gt;&lt;/pre&gt;&lt;/div&gt;" style="text;html=1;align=center;verticalAlign=middle;resizable=0;points=[];autosize=1;strokeColor=none;fillColor=none;" vertex="1" parent="1">
          <mxGeometry x="-420" y="1168" width="20" height="50" as="geometry" />
        </mxCell>
        <mxCell id="DeM_ozMbzpMKVBjR-W4c-12" value="filteredOrdersList&lt;div&gt;filteredAndCutOrdersList&lt;br&gt;filteredByDates&lt;/div&gt;&lt;div&gt;filteredByCategory&lt;/div&gt;" style="text;html=1;align=center;verticalAlign=middle;resizable=0;points=[];autosize=1;strokeColor=none;fillColor=none;" vertex="1" parent="1">
          <mxGeometry x="-370" y="780" width="150" height="70" as="geometry" />
        </mxCell>
        <mxCell id="DeM_ozMbzpMKVBjR-W4c-13" value="1&lt;div&gt;1&lt;/div&gt;&lt;div&gt;1&lt;/div&gt;&lt;div&gt;1&lt;/div&gt;" style="text;html=1;align=center;verticalAlign=middle;resizable=0;points=[];autosize=1;strokeColor=none;fillColor=none;" vertex="1" parent="1">
          <mxGeometry x="-260" y="654" width="30" height="70" as="geometry" />
        </mxCell>
        <mxCell id="DeM_ozMbzpMKVBjR-W4c-14" value="0..*&lt;div&gt;0..20&lt;/div&gt;&lt;div&gt;0..*&lt;/div&gt;&lt;div&gt;0..*&lt;/div&gt;" style="text;html=1;align=center;verticalAlign=middle;resizable=0;points=[];autosize=1;strokeColor=none;fillColor=none;" vertex="1" parent="1">
          <mxGeometry x="-195" y="782.5" width="50" height="70" as="geometry" />
        </mxCell>
        <mxCell id="DeM_ozMbzpMKVBjR-W4c-17" value="" style="endArrow=diamondThin;endFill=1;endSize=24;html=1;rounded=0;entryX=0.854;entryY=0.002;entryDx=0;entryDy=0;entryPerimeter=0;exitX=0;exitY=0.75;exitDx=0;exitDy=0;" edge="1" parent="1" source="node7" target="node2">
          <mxGeometry width="160" relative="1" as="geometry">
            <mxPoint x="160" y="1040" as="sourcePoint" />
            <mxPoint x="320" y="1040" as="targetPoint" />
            <Array as="points">
              <mxPoint x="62" y="783" />
            </Array>
          </mxGeometry>
        </mxCell>
        <mxCell id="DeM_ozMbzpMKVBjR-W4c-18" value="cashRegisterService" style="text;html=1;align=center;verticalAlign=middle;resizable=0;points=[];autosize=1;strokeColor=none;fillColor=none;" vertex="1" parent="1">
          <mxGeometry x="60" y="810" width="130" height="30" as="geometry" />
        </mxCell>
        <mxCell id="DeM_ozMbzpMKVBjR-W4c-19" value="1" style="text;html=1;align=center;verticalAlign=middle;resizable=0;points=[];autosize=1;strokeColor=none;fillColor=none;" vertex="1" parent="1">
          <mxGeometry x="30" y="810" width="30" height="30" as="geometry" />
        </mxCell>
        <mxCell id="DeM_ozMbzpMKVBjR-W4c-21" value="" style="endArrow=diamondThin;endFill=1;endSize=24;html=1;rounded=0;entryX=0.5;entryY=1;entryDx=0;entryDy=0;exitX=0.447;exitY=-0.039;exitDx=0;exitDy=0;exitPerimeter=0;" edge="1" parent="1" source="node9" target="node7">
          <mxGeometry width="160" relative="1" as="geometry">
            <mxPoint x="520" y="1050" as="sourcePoint" />
            <mxPoint x="680" y="1050" as="targetPoint" />
          </mxGeometry>
        </mxCell>
        <mxCell id="DeM_ozMbzpMKVBjR-W4c-22" value="cashRegisterRepository" style="text;html=1;align=center;verticalAlign=middle;resizable=0;points=[];autosize=1;strokeColor=none;fillColor=none;" vertex="1" parent="1">
          <mxGeometry x="460" y="915" width="150" height="30" as="geometry" />
        </mxCell>
        <mxCell id="DeM_ozMbzpMKVBjR-W4c-23" value="1" style="text;html=1;align=center;verticalAlign=middle;resizable=0;points=[];autosize=1;strokeColor=none;fillColor=none;" vertex="1" parent="1">
          <mxGeometry x="415" y="915" width="30" height="30" as="geometry" />
        </mxCell>
        <mxCell id="DeM_ozMbzpMKVBjR-W4c-24" value="1" style="text;html=1;align=center;verticalAlign=middle;resizable=0;points=[];autosize=1;strokeColor=none;fillColor=none;" vertex="1" parent="1">
          <mxGeometry x="430" y="1050" width="30" height="30" as="geometry" />
        </mxCell>
        <mxCell id="DeM_ozMbzpMKVBjR-W4c-25" value="" style="endArrow=diamondThin;endFill=1;endSize=24;html=1;rounded=0;entryX=0;entryY=0.5;entryDx=0;entryDy=0;exitX=0.5;exitY=1;exitDx=0;exitDy=0;" edge="1" parent="1" source="node9" target="node4">
          <mxGeometry width="160" relative="1" as="geometry">
            <mxPoint x="720" y="1110" as="sourcePoint" />
            <mxPoint x="880" y="1110" as="targetPoint" />
            <Array as="points">
              <mxPoint x="474" y="1230" />
            </Array>
          </mxGeometry>
        </mxCell>
        <mxCell id="DeM_ozMbzpMKVBjR-W4c-26" value="cashRegisterRepository" style="text;html=1;align=center;verticalAlign=middle;resizable=0;points=[];autosize=1;strokeColor=none;fillColor=none;" vertex="1" parent="1">
          <mxGeometry x="560" y="1248" width="150" height="30" as="geometry" />
        </mxCell>
        <mxCell id="DeM_ozMbzpMKVBjR-W4c-27" value="1" style="text;html=1;align=center;verticalAlign=middle;resizable=0;points=[];autosize=1;strokeColor=none;fillColor=none;" vertex="1" parent="1">
          <mxGeometry x="665" y="1198" width="30" height="30" as="geometry" />
        </mxCell>
        <mxCell id="DeM_ozMbzpMKVBjR-W4c-28" value="1" style="text;html=1;align=center;verticalAlign=middle;resizable=0;points=[];autosize=1;strokeColor=none;fillColor=none;" vertex="1" parent="1">
          <mxGeometry x="445" y="1158" width="30" height="30" as="geometry" />
        </mxCell>
        <mxCell id="DeM_ozMbzpMKVBjR-W4c-29" value="Contains one" style="endArrow=open;endSize=12;dashed=1;html=1;rounded=0;exitX=0.75;exitY=0;exitDx=0;exitDy=0;entryX=0;entryY=0.75;entryDx=0;entryDy=0;" edge="1" parent="1" source="node9" target="node1">
          <mxGeometry width="160" relative="1" as="geometry">
            <mxPoint x="720" y="1020" as="sourcePoint" />
            <mxPoint x="880" y="1020" as="targetPoint" />
          </mxGeometry>
        </mxCell>
        <mxCell id="DeM_ozMbzpMKVBjR-W4c-30" value="Use" style="endArrow=open;endSize=12;dashed=1;html=1;rounded=0;exitX=0.997;exitY=0.851;exitDx=0;exitDy=0;exitPerimeter=0;entryX=0;entryY=0.5;entryDx=0;entryDy=0;" edge="1" parent="1" source="node7" target="node1">
          <mxGeometry width="160" relative="1" as="geometry">
            <mxPoint x="700" y="830" as="sourcePoint" />
            <mxPoint x="860" y="830" as="targetPoint" />
          </mxGeometry>
        </mxCell>
        <mxCell id="DeM_ozMbzpMKVBjR-W4c-31" value="Use" style="text;html=1;align=center;verticalAlign=middle;resizable=0;points=[];autosize=1;strokeColor=none;fillColor=none;" vertex="1" parent="1">
          <mxGeometry x="305" width="40" height="30" as="geometry" />
        </mxCell>
        <mxCell id="DeM_ozMbzpMKVBjR-W4c-35" value="" style="shape=folder;fontStyle=1;spacingTop=10;tabWidth=40;tabHeight=22;tabPosition=left;html=1;whiteSpace=wrap;fillColor=#dae8fc;strokeColor=#6c8ebf;" vertex="1" parent="1">
          <mxGeometry x="-1060" y="477" width="290" height="223" as="geometry" />
        </mxCell>
        <mxCell id="DeM_ozMbzpMKVBjR-W4c-36" value="org.salespointframework.accountancy" style="text;html=1;align=center;verticalAlign=middle;resizable=1;points=[];autosize=1;strokeColor=none;fillColor=none;movable=1;rotatable=1;deletable=1;editable=1;locked=0;connectable=1;" vertex="1" parent="1">
          <mxGeometry x="-1060" y="637" width="220" height="30" as="geometry" />
        </mxCell>
        <mxCell id="DeM_ozMbzpMKVBjR-W4c-37" value="AccountancyEntry" style="swimlane;fontStyle=1;align=center;verticalAlign=top;childLayout=stackLayout;horizontal=1;startSize=26;horizontalStack=0;resizeParent=1;resizeParentMax=0;resizeLast=0;collapsible=1;marginBottom=0;whiteSpace=wrap;html=1;fillColor=#ffe6cc;strokeColor=#d79b00;" vertex="1" parent="1">
          <mxGeometry x="-1010" y="509" width="160" height="34" as="geometry" />
        </mxCell>
        <mxCell id="DeM_ozMbzpMKVBjR-W4c-39" value="" style="line;strokeWidth=1;fillColor=none;align=left;verticalAlign=middle;spacingTop=-1;spacingLeft=3;spacingRight=3;rotatable=0;labelPosition=right;points=[];portConstraint=eastwest;strokeColor=inherit;" vertex="1" parent="DeM_ozMbzpMKVBjR-W4c-37">
          <mxGeometry y="26" width="160" height="8" as="geometry" />
        </mxCell>
        <mxCell id="DeM_ozMbzpMKVBjR-W4c-42" value="Extends" style="endArrow=block;endSize=16;endFill=0;html=1;rounded=0;entryX=1;entryY=0.5;entryDx=0;entryDy=0;exitX=0.058;exitY=0.011;exitDx=0;exitDy=0;exitPerimeter=0;" edge="1" parent="1" source="node8" target="DeM_ozMbzpMKVBjR-W4c-37">
          <mxGeometry width="160" relative="1" as="geometry">
            <mxPoint x="-820" y="880" as="sourcePoint" />
            <mxPoint x="-660" y="880" as="targetPoint" />
            <Array as="points">
              <mxPoint x="-420" y="580" />
              <mxPoint x="-530" y="580" />
            </Array>
          </mxGeometry>
        </mxCell>
        <mxCell id="DeM_ozMbzpMKVBjR-W4c-43" value="«interface»&lt;br&gt;&lt;b&gt;Accountancy&lt;/b&gt;" style="html=1;whiteSpace=wrap;fillColor=#d5e8d4;strokeColor=#82b366;" vertex="1" parent="1">
          <mxGeometry x="-1010" y="559" width="160" height="60" as="geometry" />
        </mxCell>
        <mxCell id="DeM_ozMbzpMKVBjR-W4c-44" value="" style="endArrow=block;dashed=1;endFill=0;endSize=12;html=1;rounded=0;entryX=1;entryY=0.5;entryDx=0;entryDy=0;exitX=0.004;exitY=0.467;exitDx=0;exitDy=0;exitPerimeter=0;" edge="1" parent="1" source="node7" target="DeM_ozMbzpMKVBjR-W4c-43">
          <mxGeometry width="160" relative="1" as="geometry">
            <mxPoint x="170" y="640" as="sourcePoint" />
            <mxPoint x="-460" y="650" as="targetPoint" />
            <Array as="points">
              <mxPoint x="120" y="640" />
              <mxPoint x="120" y="520" />
              <mxPoint x="-490" y="520" />
              <mxPoint x="-490" y="640" />
            </Array>
          </mxGeometry>
        </mxCell>
        <mxCell id="DeM_ozMbzpMKVBjR-W4c-45" value="" style="shape=folder;fontStyle=1;spacingTop=10;tabWidth=40;tabHeight=14;tabPosition=left;html=1;whiteSpace=wrap;fillColor=#dae8fc;strokeColor=#6c8ebf;" vertex="1" parent="1">
          <mxGeometry x="1270" y="429" width="200" height="400" as="geometry" />
        </mxCell>
        <mxCell id="DeM_ozMbzpMKVBjR-W4c-46" value="org.salespointframework.order" style="text;html=1;align=center;verticalAlign=middle;resizable=0;points=[];autosize=1;strokeColor=none;fillColor=none;" vertex="1" parent="1">
          <mxGeometry x="1260" y="440" width="190" height="30" as="geometry" />
        </mxCell>
        <mxCell id="DeM_ozMbzpMKVBjR-W4c-47" value="Order" style="swimlane;fontStyle=1;align=center;verticalAlign=top;childLayout=stackLayout;horizontal=1;startSize=26;horizontalStack=0;resizeParent=1;resizeParentMax=0;resizeLast=0;collapsible=1;marginBottom=0;whiteSpace=wrap;html=1;fillColor=#ffe6cc;strokeColor=#d79b00;" vertex="1" parent="1">
          <mxGeometry x="1280" y="479" width="160" height="34" as="geometry" />
        </mxCell>
        <mxCell id="DeM_ozMbzpMKVBjR-W4c-49" value="" style="line;strokeWidth=1;fillColor=#ffe6cc;align=left;verticalAlign=middle;spacingTop=-1;spacingLeft=3;spacingRight=3;rotatable=0;labelPosition=right;points=[];portConstraint=eastwest;strokeColor=#d79b00;" vertex="1" parent="DeM_ozMbzpMKVBjR-W4c-47">
          <mxGeometry y="26" width="160" height="8" as="geometry" />
        </mxCell>
        <mxCell id="DeM_ozMbzpMKVBjR-W4c-51" value="Use" style="endArrow=open;endSize=12;dashed=1;html=1;rounded=0;exitX=1.004;exitY=0.216;exitDx=0;exitDy=0;exitPerimeter=0;entryX=0;entryY=0.5;entryDx=0;entryDy=0;" edge="1" parent="1" source="node7" target="DeM_ozMbzpMKVBjR-W4c-47">
          <mxGeometry width="160" relative="1" as="geometry">
            <mxPoint x="700" y="560" as="sourcePoint" />
            <mxPoint x="860" y="560" as="targetPoint" />
          </mxGeometry>
        </mxCell>
        <mxCell id="DeM_ozMbzpMKVBjR-W4c-52" value="" style="endArrow=diamondThin;endFill=0;endSize=24;html=1;rounded=0;entryX=1;entryY=0.309;entryDx=0;entryDy=0;entryPerimeter=0;exitX=0;exitY=0.5;exitDx=0;exitDy=0;" edge="1" parent="1" source="DeM_ozMbzpMKVBjR-W4c-53" target="node7">
          <mxGeometry width="160" relative="1" as="geometry">
            <mxPoint x="670" y="630" as="sourcePoint" />
            <mxPoint x="830" y="630" as="targetPoint" />
          </mxGeometry>
        </mxCell>
        <mxCell id="DeM_ozMbzpMKVBjR-W4c-53" value="OrderManagement" style="swimlane;fontStyle=1;align=center;verticalAlign=top;childLayout=stackLayout;horizontal=1;startSize=26;horizontalStack=0;resizeParent=1;resizeParentMax=0;resizeLast=0;collapsible=1;marginBottom=0;whiteSpace=wrap;html=1;fillColor=#d5e8d4;strokeColor=#82b366;" vertex="1" parent="1">
          <mxGeometry x="1280" y="527" width="160" height="34" as="geometry" />
        </mxCell>
        <mxCell id="DeM_ozMbzpMKVBjR-W4c-55" value="" style="line;strokeWidth=1;fillColor=none;align=left;verticalAlign=middle;spacingTop=-1;spacingLeft=3;spacingRight=3;rotatable=0;labelPosition=right;points=[];portConstraint=eastwest;strokeColor=inherit;" vertex="1" parent="DeM_ozMbzpMKVBjR-W4c-53">
          <mxGeometry y="26" width="160" height="8" as="geometry" />
        </mxCell>
        <mxCell id="DeM_ozMbzpMKVBjR-W4c-57" value="orderManagement" style="text;html=1;align=center;verticalAlign=middle;resizable=0;points=[];autosize=1;strokeColor=none;fillColor=none;" vertex="1" parent="1">
          <mxGeometry x="690" y="558" width="120" height="30" as="geometry" />
        </mxCell>
        <mxCell id="DeM_ozMbzpMKVBjR-W4c-58" value="1" style="text;html=1;align=center;verticalAlign=middle;resizable=0;points=[];autosize=1;strokeColor=none;fillColor=none;" vertex="1" parent="1">
          <mxGeometry x="735" y="518" width="30" height="30" as="geometry" />
        </mxCell>
        <mxCell id="DeM_ozMbzpMKVBjR-W4c-63" value="OrderEvents" style="swimlane;fontStyle=1;align=center;verticalAlign=top;childLayout=stackLayout;horizontal=1;startSize=26;horizontalStack=0;resizeParent=1;resizeParentMax=0;resizeLast=0;collapsible=1;marginBottom=0;whiteSpace=wrap;html=1;fillColor=#ffe6cc;strokeColor=#d79b00;" vertex="1" parent="1">
          <mxGeometry x="1280" y="571" width="160" height="34" as="geometry" />
        </mxCell>
        <mxCell id="DeM_ozMbzpMKVBjR-W4c-65" value="" style="line;strokeWidth=1;fillColor=none;align=left;verticalAlign=middle;spacingTop=-1;spacingLeft=3;spacingRight=3;rotatable=0;labelPosition=right;points=[];portConstraint=eastwest;strokeColor=inherit;" vertex="1" parent="DeM_ozMbzpMKVBjR-W4c-63">
          <mxGeometry y="26" width="160" height="8" as="geometry" />
        </mxCell>
        <mxCell id="DeM_ozMbzpMKVBjR-W4c-67" value="Listens" style="endArrow=open;endSize=12;dashed=1;html=1;rounded=0;entryX=0;entryY=0.5;entryDx=0;entryDy=0;exitX=1.005;exitY=0.419;exitDx=0;exitDy=0;exitPerimeter=0;" edge="1" parent="1" source="node7" target="DeM_ozMbzpMKVBjR-W4c-63">
          <mxGeometry width="160" relative="1" as="geometry">
            <mxPoint x="680" y="640" as="sourcePoint" />
            <mxPoint x="840" y="640" as="targetPoint" />
          </mxGeometry>
        </mxCell>
        <mxCell id="DeM_ozMbzpMKVBjR-W4c-68" value="&lt;div&gt;&amp;lt;&amp;lt;enumeration&amp;gt;&amp;gt;&lt;/div&gt;OrderStatus" style="swimlane;fontStyle=1;align=center;verticalAlign=top;childLayout=stackLayout;horizontal=1;startSize=42;horizontalStack=0;resizeParent=1;resizeParentMax=0;resizeLast=0;collapsible=1;marginBottom=0;whiteSpace=wrap;html=1;fillColor=#d5e8d4;strokeColor=#82b366;" vertex="1" parent="1">
          <mxGeometry x="1280" y="612" width="160" height="50" as="geometry" />
        </mxCell>
        <mxCell id="DeM_ozMbzpMKVBjR-W4c-70" value="" style="line;strokeWidth=1;fillColor=none;align=left;verticalAlign=middle;spacingTop=-1;spacingLeft=3;spacingRight=3;rotatable=0;labelPosition=right;points=[];portConstraint=eastwest;strokeColor=inherit;" vertex="1" parent="DeM_ozMbzpMKVBjR-W4c-68">
          <mxGeometry y="42" width="160" height="8" as="geometry" />
        </mxCell>
        <mxCell id="DeM_ozMbzpMKVBjR-W4c-72" value="Use" style="endArrow=open;endSize=12;dashed=1;html=1;rounded=0;entryX=0;entryY=0.5;entryDx=0;entryDy=0;" edge="1" parent="1" target="DeM_ozMbzpMKVBjR-W4c-68">
          <mxGeometry width="160" relative="1" as="geometry">
            <mxPoint x="730" y="640" as="sourcePoint" />
            <mxPoint x="840" y="640" as="targetPoint" />
          </mxGeometry>
        </mxCell>
        <mxCell id="DeM_ozMbzpMKVBjR-W4c-74" value="" style="endArrow=diamondThin;endFill=1;endSize=24;html=1;rounded=0;entryX=0.008;entryY=0.632;entryDx=0;entryDy=0;entryPerimeter=0;exitX=0.5;exitY=0;exitDx=0;exitDy=0;" edge="1" parent="1" source="DeM_ozMbzpMKVBjR-W4c-37" target="node1">
          <mxGeometry width="160" relative="1" as="geometry">
            <mxPoint x="40" y="890" as="sourcePoint" />
            <mxPoint x="200" y="890" as="targetPoint" />
            <Array as="points">
              <mxPoint x="-930" y="470" />
              <mxPoint x="-590" y="470" />
              <mxPoint x="-590" y="1250" />
              <mxPoint x="210" y="1250" />
              <mxPoint x="210" y="951" />
            </Array>
          </mxGeometry>
        </mxCell>
        <mxCell id="DeM_ozMbzpMKVBjR-W4c-75" value="accountancyEntries" style="text;html=1;align=center;verticalAlign=middle;resizable=0;points=[];autosize=1;strokeColor=none;fillColor=none;" vertex="1" parent="1">
          <mxGeometry x="705" y="948" width="130" height="30" as="geometry" />
        </mxCell>
        <mxCell id="DeM_ozMbzpMKVBjR-W4c-76" value="1" style="text;html=1;align=center;verticalAlign=middle;resizable=0;points=[];autosize=1;strokeColor=none;fillColor=none;" vertex="1" parent="1">
          <mxGeometry x="765" y="918" width="30" height="30" as="geometry" />
        </mxCell>
        <mxCell id="DeM_ozMbzpMKVBjR-W4c-77" value="0..*" style="text;html=1;align=center;verticalAlign=middle;resizable=0;points=[];autosize=1;strokeColor=none;fillColor=none;" vertex="1" parent="1">
          <mxGeometry x="-970" y="467" width="40" height="30" as="geometry" />
        </mxCell>
        <mxCell id="DeM_ozMbzpMKVBjR-W4c-78" value="" style="endArrow=diamondThin;endFill=0;endSize=24;html=1;rounded=0;entryX=0;entryY=0.5;entryDx=0;entryDy=0;exitX=0.75;exitY=0;exitDx=0;exitDy=0;" edge="1" parent="1" source="DeM_ozMbzpMKVBjR-W4c-37" target="node6">
          <mxGeometry width="160" relative="1" as="geometry">
            <mxPoint x="-540" y="320" as="sourcePoint" />
            <mxPoint x="-380" y="320" as="targetPoint" />
            <Array as="points">
              <mxPoint x="-850" y="480" />
              <mxPoint x="-730" y="480" />
              <mxPoint x="-730" y="140" />
            </Array>
          </mxGeometry>
        </mxCell>
        <mxCell id="DeM_ozMbzpMKVBjR-W4c-79" value="orders" style="text;html=1;align=center;verticalAlign=middle;resizable=0;points=[];autosize=1;strokeColor=none;fillColor=none;" vertex="1" parent="1">
          <mxGeometry x="-470" y="150" width="60" height="30" as="geometry" />
        </mxCell>
        <mxCell id="DeM_ozMbzpMKVBjR-W4c-80" value="1" style="text;html=1;align=center;verticalAlign=middle;resizable=0;points=[];autosize=1;strokeColor=none;fillColor=none;" vertex="1" parent="1">
          <mxGeometry x="-455" y="98" width="30" height="30" as="geometry" />
        </mxCell>
        <mxCell id="DeM_ozMbzpMKVBjR-W4c-81" value="0..*" style="text;html=1;align=center;verticalAlign=middle;resizable=0;points=[];autosize=1;strokeColor=none;fillColor=none;" vertex="1" parent="1">
          <mxGeometry x="-900" y="467" width="40" height="30" as="geometry" />
        </mxCell>
        <mxCell id="DeM_ozMbzpMKVBjR-W4c-83" value="" style="shape=folder;fontStyle=1;spacingTop=10;tabWidth=40;tabHeight=14;tabPosition=left;html=1;whiteSpace=wrap;fillColor=#dae8fc;strokeColor=#6c8ebf;" vertex="1" parent="1">
          <mxGeometry x="-1060" y="270" width="290" height="190" as="geometry" />
        </mxCell>
        <mxCell id="DeM_ozMbzpMKVBjR-W4c-85" value="flowershop.sales" style="text;html=1;align=center;verticalAlign=middle;resizable=0;points=[];autosize=1;strokeColor=none;fillColor=none;" vertex="1" parent="1">
          <mxGeometry x="-1060" y="280" width="110" height="30" as="geometry" />
        </mxCell>
        <mxCell id="DeM_ozMbzpMKVBjR-W4c-86" value="SimpleOrder" style="swimlane;fontStyle=1;align=center;verticalAlign=top;childLayout=stackLayout;horizontal=1;startSize=26;horizontalStack=0;resizeParent=1;resizeParentMax=0;resizeLast=0;collapsible=1;marginBottom=0;whiteSpace=wrap;html=1;fillColor=#ffe6cc;strokeColor=#d79b00;" vertex="1" parent="1">
          <mxGeometry x="-940" y="320" width="160" height="34" as="geometry" />
        </mxCell>
        <mxCell id="DeM_ozMbzpMKVBjR-W4c-88" value="" style="line;strokeWidth=1;fillColor=#ffe6cc;align=left;verticalAlign=middle;spacingTop=-1;spacingLeft=3;spacingRight=3;rotatable=0;labelPosition=right;points=[];portConstraint=eastwest;strokeColor=#d79b00;" vertex="1" parent="DeM_ozMbzpMKVBjR-W4c-86">
          <mxGeometry y="26" width="160" height="8" as="geometry" />
        </mxCell>
        <mxCell id="DeM_ozMbzpMKVBjR-W4c-90" value="WholesalerOrder" style="swimlane;fontStyle=1;align=center;verticalAlign=top;childLayout=stackLayout;horizontal=1;startSize=26;horizontalStack=0;resizeParent=1;resizeParentMax=0;resizeLast=0;collapsible=1;marginBottom=0;whiteSpace=wrap;html=1;fillColor=#ffe6cc;strokeColor=#d79b00;" vertex="1" parent="1">
          <mxGeometry x="-940" y="370" width="160" height="34" as="geometry" />
        </mxCell>
        <mxCell id="DeM_ozMbzpMKVBjR-W4c-92" value="" style="line;strokeWidth=1;fillColor=none;align=left;verticalAlign=middle;spacingTop=-1;spacingLeft=3;spacingRight=3;rotatable=0;labelPosition=right;points=[];portConstraint=eastwest;strokeColor=inherit;" vertex="1" parent="DeM_ozMbzpMKVBjR-W4c-90">
          <mxGeometry y="26" width="160" height="8" as="geometry" />
        </mxCell>
        <mxCell id="DeM_ozMbzpMKVBjR-W4c-94" value="Use" style="endArrow=open;endSize=12;dashed=1;html=1;rounded=0;exitX=-0.005;exitY=0.167;exitDx=0;exitDy=0;exitPerimeter=0;entryX=1;entryY=0.5;entryDx=0;entryDy=0;" edge="1" parent="1" source="node8" target="DeM_ozMbzpMKVBjR-W4c-86">
          <mxGeometry width="160" relative="1" as="geometry">
            <mxPoint x="-520" y="630" as="sourcePoint" />
            <mxPoint x="-360" y="630" as="targetPoint" />
            <Array as="points">
              <mxPoint x="-310" y="595" />
              <mxPoint x="-310" y="337" />
            </Array>
          </mxGeometry>
        </mxCell>
        <mxCell id="DeM_ozMbzpMKVBjR-W4c-95" value="" style="endArrow=open;endSize=12;dashed=1;html=1;rounded=0;entryX=1;entryY=0.5;entryDx=0;entryDy=0;" edge="1" parent="1" target="DeM_ozMbzpMKVBjR-W4c-90">
          <mxGeometry width="160" relative="1" as="geometry">
            <mxPoint x="-310" y="390" as="sourcePoint" />
            <mxPoint x="-360" y="410" as="targetPoint" />
          </mxGeometry>
        </mxCell>
        <mxCell id="DeM_ozMbzpMKVBjR-W4c-96" value="" style="shape=folder;fontStyle=1;spacingTop=10;tabWidth=40;tabHeight=14;tabPosition=left;html=1;whiteSpace=wrap;fillColor=#dae8fc;strokeColor=#6c8ebf;" vertex="1" parent="1">
          <mxGeometry x="-1060" y="724" width="290" height="216" as="geometry" />
        </mxCell>
        <mxCell id="DeM_ozMbzpMKVBjR-W4c-98" value="flowershop.services" style="text;html=1;align=center;verticalAlign=middle;resizable=0;points=[];autosize=1;strokeColor=none;fillColor=none;" vertex="1" parent="1">
          <mxGeometry x="-1055" y="744" width="130" height="30" as="geometry" />
        </mxCell>
        <mxCell id="DeM_ozMbzpMKVBjR-W4c-99" value="ContractOrder" style="swimlane;fontStyle=1;align=center;verticalAlign=top;childLayout=stackLayout;horizontal=1;startSize=26;horizontalStack=0;resizeParent=1;resizeParentMax=0;resizeLast=0;collapsible=1;marginBottom=0;whiteSpace=wrap;html=1;fillColor=#ffe6cc;strokeColor=#d79b00;" vertex="1" parent="1">
          <mxGeometry x="-1050" y="774" width="160" height="34" as="geometry" />
        </mxCell>
        <mxCell id="DeM_ozMbzpMKVBjR-W4c-101" value="" style="line;strokeWidth=1;fillColor=none;align=left;verticalAlign=middle;spacingTop=-1;spacingLeft=3;spacingRight=3;rotatable=0;labelPosition=right;points=[];portConstraint=eastwest;strokeColor=inherit;" vertex="1" parent="DeM_ozMbzpMKVBjR-W4c-99">
          <mxGeometry y="26" width="160" height="8" as="geometry" />
        </mxCell>
        <mxCell id="DeM_ozMbzpMKVBjR-W4c-103" value="EventOrder" style="swimlane;fontStyle=1;align=center;verticalAlign=top;childLayout=stackLayout;horizontal=1;startSize=26;horizontalStack=0;resizeParent=1;resizeParentMax=0;resizeLast=0;collapsible=1;marginBottom=0;whiteSpace=wrap;html=1;fillColor=#ffe6cc;strokeColor=#d79b00;" vertex="1" parent="1">
          <mxGeometry x="-1050" y="819" width="160" height="34" as="geometry" />
        </mxCell>
        <mxCell id="DeM_ozMbzpMKVBjR-W4c-104" value="" style="line;strokeWidth=1;fillColor=none;align=left;verticalAlign=middle;spacingTop=-1;spacingLeft=3;spacingRight=3;rotatable=0;labelPosition=right;points=[];portConstraint=eastwest;strokeColor=inherit;" vertex="1" parent="DeM_ozMbzpMKVBjR-W4c-103">
          <mxGeometry y="26" width="160" height="8" as="geometry" />
        </mxCell>
        <mxCell id="DeM_ozMbzpMKVBjR-W4c-105" value="ReservationOrder" style="swimlane;fontStyle=1;align=center;verticalAlign=top;childLayout=stackLayout;horizontal=1;startSize=26;horizontalStack=0;resizeParent=1;resizeParentMax=0;resizeLast=0;collapsible=1;marginBottom=0;whiteSpace=wrap;html=1;fillColor=#ffe6cc;strokeColor=#d79b00;" vertex="1" parent="1">
          <mxGeometry x="-1050" y="869" width="160" height="34" as="geometry" />
        </mxCell>
        <mxCell id="DeM_ozMbzpMKVBjR-W4c-106" value="" style="line;strokeWidth=1;fillColor=none;align=left;verticalAlign=middle;spacingTop=-1;spacingLeft=3;spacingRight=3;rotatable=0;labelPosition=right;points=[];portConstraint=eastwest;strokeColor=inherit;" vertex="1" parent="DeM_ozMbzpMKVBjR-W4c-105">
          <mxGeometry y="26" width="160" height="8" as="geometry" />
        </mxCell>
        <mxCell id="DeM_ozMbzpMKVBjR-W4c-107" value="Use" style="endArrow=open;endSize=12;dashed=1;html=1;rounded=0;exitX=0;exitY=0.75;exitDx=0;exitDy=0;entryX=1;entryY=0.5;entryDx=0;entryDy=0;" edge="1" parent="1" source="node8" target="DeM_ozMbzpMKVBjR-W4c-99">
          <mxGeometry width="160" relative="1" as="geometry">
            <mxPoint x="-590" y="830" as="sourcePoint" />
            <mxPoint x="-430" y="830" as="targetPoint" />
            <Array as="points">
              <mxPoint x="-580" y="850" />
              <mxPoint x="-580" y="960" />
            </Array>
          </mxGeometry>
        </mxCell>
        <mxCell id="DeM_ozMbzpMKVBjR-W4c-108" value="" style="endArrow=open;endSize=12;dashed=1;html=1;rounded=0;entryX=1;entryY=0.5;entryDx=0;entryDy=0;" edge="1" parent="1" target="DeM_ozMbzpMKVBjR-W4c-105">
          <mxGeometry width="160" relative="1" as="geometry">
            <mxPoint x="-580" y="960" as="sourcePoint" />
            <mxPoint x="-430" y="830" as="targetPoint" />
            <Array as="points">
              <mxPoint x="-580" y="1060" />
            </Array>
          </mxGeometry>
        </mxCell>
        <mxCell id="DeM_ozMbzpMKVBjR-W4c-109" value="" style="endArrow=open;endSize=12;dashed=1;html=1;rounded=0;entryX=1;entryY=0.5;entryDx=0;entryDy=0;" edge="1" parent="1" target="DeM_ozMbzpMKVBjR-W4c-103">
          <mxGeometry width="160" relative="1" as="geometry">
            <mxPoint x="-580" y="1007" as="sourcePoint" />
            <mxPoint x="-430" y="880" as="targetPoint" />
          </mxGeometry>
        </mxCell>
        <mxCell id="DeM_ozMbzpMKVBjR-W4c-111" value="Use" style="endArrow=open;endSize=12;dashed=1;html=1;rounded=0;entryX=1;entryY=0.75;entryDx=0;entryDy=0;" edge="1" parent="1" target="DeM_ozMbzpMKVBjR-W4c-47">
          <mxGeometry width="160" relative="1" as="geometry">
            <mxPoint x="-580" y="1060" as="sourcePoint" />
            <mxPoint x="350" y="960" as="targetPoint" />
            <Array as="points">
              <mxPoint x="-580" y="1180" />
              <mxPoint x="-163" y="1180" />
              <mxPoint x="310" y="1180" />
              <mxPoint x="1240" y="1180" />
              <mxPoint x="1470" y="1180" />
              <mxPoint x="1490" y="1180" />
              <mxPoint x="1490" y="504" />
            </Array>
          </mxGeometry>
        </mxCell>
        <mxCell id="DeM_ozMbzpMKVBjR-W4c-116" value="ChargeLine" style="swimlane;fontStyle=1;align=center;verticalAlign=top;childLayout=stackLayout;horizontal=1;startSize=26;horizontalStack=0;resizeParent=1;resizeParentMax=0;resizeLast=0;collapsible=1;marginBottom=0;whiteSpace=wrap;html=1;fillColor=#ffe6cc;strokeColor=#d79b00;" vertex="1" parent="1">
          <mxGeometry x="1280" y="680" width="160" height="34" as="geometry" />
        </mxCell>
        <mxCell id="DeM_ozMbzpMKVBjR-W4c-117" value="" style="line;strokeWidth=1;fillColor=none;align=left;verticalAlign=middle;spacingTop=-1;spacingLeft=3;spacingRight=3;rotatable=0;labelPosition=right;points=[];portConstraint=eastwest;strokeColor=inherit;" vertex="1" parent="DeM_ozMbzpMKVBjR-W4c-116">
          <mxGeometry y="26" width="160" height="8" as="geometry" />
        </mxCell>
        <mxCell id="DeM_ozMbzpMKVBjR-W4c-118" value="" style="endArrow=open;endSize=12;dashed=1;html=1;rounded=0;entryX=1;entryY=0.5;entryDx=0;entryDy=0;" edge="1" parent="1" target="DeM_ozMbzpMKVBjR-W4c-116">
          <mxGeometry width="160" relative="1" as="geometry">
            <mxPoint x="1490" y="697" as="sourcePoint" />
            <mxPoint x="990" y="650" as="targetPoint" />
          </mxGeometry>
        </mxCell>
        <mxCell id="DeM_ozMbzpMKVBjR-W4c-119" value="OrderLine" style="swimlane;fontStyle=1;align=center;verticalAlign=top;childLayout=stackLayout;horizontal=1;startSize=26;horizontalStack=0;resizeParent=1;resizeParentMax=0;resizeLast=0;collapsible=1;marginBottom=0;whiteSpace=wrap;html=1;fillColor=#ffe6cc;strokeColor=#d79b00;" vertex="1" parent="1">
          <mxGeometry x="1280" y="724" width="160" height="34" as="geometry" />
        </mxCell>
        <mxCell id="DeM_ozMbzpMKVBjR-W4c-120" value="" style="line;strokeWidth=1;fillColor=none;align=left;verticalAlign=middle;spacingTop=-1;spacingLeft=3;spacingRight=3;rotatable=0;labelPosition=right;points=[];portConstraint=eastwest;strokeColor=inherit;" vertex="1" parent="DeM_ozMbzpMKVBjR-W4c-119">
          <mxGeometry y="26" width="160" height="8" as="geometry" />
        </mxCell>
        <mxCell id="DeM_ozMbzpMKVBjR-W4c-121" value="" style="endArrow=open;endSize=12;dashed=1;html=1;rounded=0;entryX=1;entryY=0.5;entryDx=0;entryDy=0;" edge="1" parent="1" target="DeM_ozMbzpMKVBjR-W4c-119">
          <mxGeometry width="160" relative="1" as="geometry">
            <mxPoint x="1490" y="741" as="sourcePoint" />
            <mxPoint x="1000" y="660" as="targetPoint" />
          </mxGeometry>
        </mxCell>
        <mxCell id="DeM_ozMbzpMKVBjR-W4c-124" value="«interface»&lt;br&gt;&lt;b&gt;Totalable&lt;/b&gt;" style="html=1;whiteSpace=wrap;fillColor=#d5e8d4;strokeColor=#82b366;" vertex="1" parent="1">
          <mxGeometry x="1280" y="767" width="160" height="30" as="geometry" />
        </mxCell>
        <mxCell id="DeM_ozMbzpMKVBjR-W4c-125" value="" style="endArrow=open;endSize=12;dashed=1;html=1;rounded=0;entryX=1;entryY=0.5;entryDx=0;entryDy=0;" edge="1" parent="1" target="DeM_ozMbzpMKVBjR-W4c-124">
          <mxGeometry width="160" relative="1" as="geometry">
            <mxPoint x="1490" y="780" as="sourcePoint" />
            <mxPoint x="1340" y="853.833333333333" as="targetPoint" />
          </mxGeometry>
        </mxCell>
        <mxCell id="DeM_ozMbzpMKVBjR-W4c-126" value="Implements" style="text;html=1;align=center;verticalAlign=middle;resizable=0;points=[];autosize=1;strokeColor=none;fillColor=none;" vertex="1" parent="1">
          <mxGeometry x="-700" y="600" width="90" height="30" as="geometry" />
        </mxCell>
        <mxCell id="DeM_ozMbzpMKVBjR-W4c-129" value="&lt;font style=&quot;font-size: 45px;&quot;&gt;flowershop.finances&lt;/font&gt;" style="text;html=1;align=center;verticalAlign=middle;resizable=0;points=[];autosize=1;strokeColor=none;fillColor=none;" vertex="1" parent="1">
          <mxGeometry x="520" y="-280" width="420" height="70" as="geometry" />
        </mxCell>
      </root>
    </mxGraphModel>
  </diagram>
</mxfile>
